<?xml version="1.0" encoding="UTF-8"?>
<svg id="Layer_1" data-name="Layer 1" xmlns="http://www.w3.org/2000/svg" version="1.1" viewBox="0 0 533.4 423.5">
  <defs>
    <style>
      .cls-1 {
        fill: #000;
        stroke-width: 0px;
      }
    </style>
  </defs>
  <path class="cls-1" d="M107,169.7h15.1v8.9s6.5-10,20.5-10,10.7,1.2,15.1,3.3l-5.7,14.5c-3.2-2.1-6.9-3.5-10.9-3.5-10.4,0-18.6,8.9-19,19.5v42h-15.1v-74.7Z"/>
  <path class="cls-1" d="M156,235.1c0-21.6,16.8-38.5,37.9-38.5s37.9,16.9,37.9,38.5-16.8,38.4-37.9,38.4-37.9-16.9-37.9-38.4ZM216.7,235.1c0-12.7-10.6-23.4-22.8-23.4s-22.8,10.7-22.8,23.4,10.1,23.3,22.8,23.3,22.8-10.7,22.8-23.3Z"/>
  <path class="cls-1" d="M371.9,198.1c0-21.6,16.8-38.5,37.9-38.5s37.9,16.9,37.9,38.5-16.8,38.4-37.9,38.4-37.9-16.9-37.9-38.4ZM432.6,198.1c0-12.7-10.6-23.4-22.8-23.4s-22.8,10.7-22.8,23.4,10.1,23.3,22.8,23.3,22.8-10.7,22.8-23.3Z"/>
  <g>
    <path class="cls-1" d="M353.1,315.4h-15.1v-8s-8.6,9.1-23.1,9.1c-21.1,0-37.9-16.9-37.9-38.4s16.8-38.5,37.9-38.5,23.1,9.1,23.1,9.1v-54.1h15.1v120.8ZM292.1,278.1c0,12.5,9.8,23.3,22.8,23.3s23.3-10.7,23.3-23.3-10.3-23.4-23.3-23.4-22.8,10.4-22.8,23.4Z"/>
    <path class="cls-1" d="M244.8,146.8h15.1v8.8s6.5-10,20.5-10,32.9,13.9,32.9,34.7v41.1h-15.1v-41.8c0-11.5-7.9-19.6-19.3-19.6s-19,8-19,19.5v42h-15.1v-74.6Z"/>
  </g>
</svg>