<?xml version="1.0" encoding="UTF-8"?>
<svg id="Layer_1" data-name="Layer 1" xmlns="http://www.w3.org/2000/svg" version="1.1" viewBox="0 0 437.3 423.5">
  <defs>
    <style>
      .cls-1 {
        fill: #000;
        stroke-width: 0px;
      }
    </style>
  </defs>
  <path class="cls-1" d="M158.1,215.6c-8.1,0-15.2,7.1-15.2,15.6s6.7,15.5,15.2,15.5,15.2-7.1,15.2-15.5-7-15.6-15.2-15.6Z"/>
  <path class="cls-1" d="M301.7,191c-8.1,0-15.2,7.1-15.2,15.6s6.7,15.5,15.2,15.5,15.2-7.1,15.2-15.5-7-15.6-15.2-15.6Z"/>
  <path class="cls-1" d="M238.5,244.3c-8.6,0-15.2,6.9-15.2,15.6s6.5,15.5,15.2,15.5,15.5-7.1,15.5-15.5-6.8-15.6-15.5-15.6Z"/>
  <path class="cls-1" d="M209.6,69.1c-82.4,0-149.2,66.8-149.2,149.2s66.8,149.2,149.2,149.2,149.2-66.8,149.2-149.2-66.8-149.2-149.2-149.2ZM123.1,196.6c-6.9,0-12.4,5.9-12.7,13v27.9h-10v-49.7h10v5.9s4.3-6.6,13.7-6.6,7.1.8,10,2.2l-3.8,9.6c-2.1-1.4-4.6-2.3-7.2-2.3ZM158.1,256.7c-14.1,0-25.2-11.2-25.2-25.5s11.1-25.6,25.2-25.6,25.2,11.2,25.2,25.6-11.1,25.5-25.2,25.5ZM202,194.1v27.9h-10v-49.6h10v5.8s4.3-6.6,13.7-6.6,21.9,9.2,21.9,23.1v27.3h-10v-27.8c0-7.6-5.2-13.1-12.9-13.1s-12.7,5.3-12.7,13ZM264,284.6h-10v-5.3s-5.7,6-15.4,6c-14.1,0-25.2-11.2-25.2-25.5s11.1-25.6,25.2-25.6,15.4,6,15.4,6v-36h10v80.3ZM301.7,232.1c-14.1,0-25.2-11.2-25.2-25.5s11.1-25.6,25.2-25.6,25.2,11.2,25.2,25.6-11.1,25.5-25.2,25.5Z"/>
</svg>